<svg width="357" height="119" viewBox="0 0 357 119" fill="none" xmlns="http://www.w3.org/2000/svg">
<path d="M4.15976 64.6663C3.43979 64.8428 2.8534 64.6614 2.40059 64.1222C1.94779 63.583 1.7523 62.9707 1.81413 62.2855C1.87258 61.5774 2.31674 61.0337 3.1466 60.6545C7.87389 58.8827 12.3624 57.3094 16.6122 55.9346C16.7457 55.8915 16.8678 55.8501 16.9785 55.8104C17.783 55.5749 18.364 55.3257 18.7215 55.063C19.0984 54.7741 19.4788 54.1932 19.8626 53.3204C20.6987 51.5647 21.6301 50.2961 22.6569 49.5147C23.7032 48.7071 24.6104 48.4563 25.3784 48.7624C26.1659 49.0422 26.6106 49.9207 26.7125 51.3978C26.726 51.489 26.7281 51.582 26.7188 51.6766C26.7213 52.1659 26.7765 52.4608 26.8847 52.5614C27.0156 52.6586 27.3596 52.6194 27.9164 52.4437C28.2976 52.3407 28.6884 52.2246 29.0889 52.0954C30.7664 51.6141 32.5008 51.1244 34.2923 50.6262C36.0804 50.1052 37.7321 49.686 39.2472 49.3686C40.4497 49.1441 41.279 49.3128 41.7352 49.8748C42.2142 50.4335 42.3674 51.0753 42.1949 51.8003C42.0452 52.5219 41.6091 53.041 40.8865 53.3577C39.3173 53.9396 37.186 54.6629 34.4928 55.5276C31.8191 56.3662 29.5459 57.0755 27.6733 57.6556C27.0217 57.8219 26.5565 58.0656 26.2776 58.3867C26.0215 58.7043 25.8545 59.2303 25.7766 59.9646C24.7803 68.2023 23.927 75.6727 23.2167 82.3759C23.0159 84.6439 22.8041 87.3098 22.5813 90.3737C22.46 92.2335 22.338 93.9302 22.2152 95.4639C22.0941 96.6942 21.8425 97.594 21.4604 98.1635C21.1012 98.7296 20.666 99.097 20.1547 99.2659C19.6468 99.4576 19.1271 99.5695 18.5956 99.6015C18.5728 99.6049 18.5386 99.6099 18.4929 99.6167C17.3488 99.7626 16.3221 99.5998 15.413 99.1281C14.5267 98.653 13.9679 97.7914 13.7367 96.5433C13.5528 94.9851 13.4665 93.3774 13.4778 91.7204C13.5086 90.0372 13.5659 88.7697 13.6497 87.918C13.8583 84.5997 14.2677 80.6689 14.8779 76.1254C15.4847 71.5592 16.2486 67.1096 17.1697 62.7766C17.3998 61.81 17.3986 61.2506 17.1663 61.0985C16.9339 60.9463 16.3619 61.0193 15.45 61.3174C15.3165 61.3605 15.183 61.4035 15.0495 61.4466C11.164 62.6043 7.53404 63.6775 4.15976 64.6663ZM35.0313 56.5671C35.7918 56.6644 36.2649 57.0258 36.4507 57.6511C36.6364 58.2764 36.5514 58.8836 36.1955 59.4724C35.8625 60.058 35.2654 60.3561 34.4044 60.3669C33.5526 60.2831 33.0094 59.9205 32.7746 59.2791C32.5398 58.6377 32.6118 58.0208 32.9905 57.4286C33.3691 56.8363 34.0494 56.5491 35.0313 56.5671ZM28.4692 70.1279C28.9402 68.4262 29.584 67.0253 30.4005 65.9253C31.2136 64.8025 32.0321 64.1102 32.856 63.8484C33.6766 63.5638 34.3449 63.8263 34.8611 64.6359C35.4 65.4422 35.6177 66.9138 35.5142 69.0508C35.3377 72.271 35.0412 75.9403 34.6246 80.0588C34.2275 84.151 33.8486 87.6577 33.488 90.5788C33.2045 92.6025 32.6761 93.9163 31.9028 94.5203C31.1524 95.121 30.3454 95.1821 29.4819 94.7036C28.6184 94.2252 27.8703 93.345 27.2377 92.063C26.6017 90.7582 26.2792 89.2088 26.2703 87.4149C26.2928 84.7303 26.5212 81.7822 26.9553 78.5704C27.3633 75.3392 27.8679 72.5251 28.4692 70.1279ZM46.7128 85.6497C44.8344 85.7177 43.2729 85.2493 42.0285 84.2443C40.7806 83.2165 39.8556 81.8496 39.2535 80.1434C38.6514 78.4372 38.3911 76.5989 38.4726 74.6284C38.5279 72.6384 38.9196 70.7153 39.6475 68.859C40.3982 66.9993 41.4928 65.4151 42.9313 64.1065C44.3664 62.7751 46.166 61.9377 48.3301 61.5942C49.4447 61.406 50.5309 61.4202 51.5888 61.6367C52.6433 61.8304 53.5685 62.2531 54.3644 62.9048C55.1602 63.5565 55.7486 64.4603 56.1294 65.6163C56.1564 65.7989 56.1902 66.027 56.2307 66.3008C56.2779 66.6202 56.3497 66.9477 56.446 67.2832C56.5388 67.5958 56.6884 67.8185 56.8945 67.9512C57.0973 68.0611 57.497 68.0836 58.0935 68.0186C58.6867 67.9309 59.2559 67.9166 59.8009 67.9759C60.3687 68.0318 60.8363 68.2774 61.2038 68.7126C61.5713 69.1479 61.7199 69.837 61.6496 70.78C61.5725 71.6774 61.4945 72.7264 61.4157 73.9271C61.2513 76.283 61.0501 78.7841 60.8121 81.4306C60.5707 84.0543 60.2474 86.282 59.8423 88.1139C59.5539 89.1591 58.9919 89.93 58.1561 90.4267C57.3203 90.9234 56.4194 91.1383 55.4536 91.0713C54.4878 91.0044 53.6623 90.6252 52.9772 89.9339C52.292 89.2425 51.9542 88.22 51.9638 86.8663C52.0163 86.2757 52.09 85.6702 52.1847 85.05C52.2228 84.8346 52.2528 84.6436 52.2748 84.4771C52.3536 83.9059 52.2949 83.5882 52.0989 83.5239C51.9028 83.4597 51.553 83.6164 51.0493 83.994C49.6582 84.9925 48.2127 85.5444 46.7128 85.6497ZM45.6142 72.3129C45.33 73.544 45.1924 74.7417 45.2015 75.9061C45.2105 77.0705 45.4275 78.0643 45.8523 78.8874C46.2738 79.6877 46.9823 80.1425 47.9776 80.2517C48.477 80.3177 48.9688 80.175 49.4531 79.8236C49.9374 79.4722 50.3765 78.8943 50.7704 78.0899C51.0671 77.4165 51.3446 76.1398 51.6027 74.2597C51.8836 72.3763 52.1134 70.3838 52.2922 68.2823C52.3464 67.3884 52.1852 66.771 51.8084 66.4304C51.451 66.0636 50.9854 65.911 50.4117 65.9726C49.401 66.0755 48.5745 66.4775 47.9322 67.1787C47.2865 67.8571 46.7768 68.6669 46.4031 69.6082C46.0522 70.5461 45.7892 71.4476 45.6142 72.3129ZM86.9593 62.909C87.5991 62.3481 88.3364 62.0525 89.1713 62.0223C90.0027 61.9692 90.715 62.2135 91.3081 62.7553C91.8978 63.2743 92.1465 64.0885 92.0541 65.1979C90.9917 74.5645 89.9406 84.5589 88.9007 95.1812C88.6001 98.3498 88.313 101.295 88.0395 104.017C87.8922 105.228 87.4007 106.081 86.5649 106.578C85.7325 107.097 84.7877 107.331 83.7306 107.277C82.6997 107.243 81.7673 107.008 80.9334 106.572C80.1257 106.155 79.6598 105.606 79.5357 104.925C79.2168 102.454 79.2251 99.2005 79.5605 95.164C79.9188 91.1241 80.4558 86.9529 81.1716 82.6503C81.4347 81.1193 81.5908 80.047 81.64 79.4335C81.7119 78.8167 81.6389 78.5594 81.4209 78.6616C81.2256 78.7604 80.8783 79.0916 80.3788 79.6551C80.356 79.6585 80.3348 79.6733 80.3154 79.6994C79.0856 81.0005 77.8475 81.9297 76.601 82.4872C75.3512 83.0218 74.1487 83.2463 72.9936 83.1607C70.8169 82.9465 69.0857 82.1184 67.7999 80.6766C66.5108 79.212 65.6733 77.4124 65.2876 75.2778C64.8791 73.1467 64.9057 70.9628 65.3676 68.7262C65.782 66.7996 66.5006 65.038 67.5234 63.4411C68.5428 61.8215 69.7903 60.4829 71.2659 59.4252C72.7643 58.3642 74.4164 57.7118 76.2222 57.468C78.2207 57.2656 79.8346 57.4582 81.0639 58.0457C82.2933 58.6332 83.2395 59.3559 83.9026 60.2137C84.5658 61.0715 85.0359 61.8063 85.3129 62.4182C85.6128 63.0266 85.859 63.3516 86.0517 63.393C86.2671 63.4311 86.5697 63.2698 86.9593 62.909ZM80.3631 69.6203C80.6837 67.8476 80.6329 66.4795 80.2106 65.5161C79.8111 64.5494 79.2049 63.9979 78.3921 63.8617C77.5759 63.7027 76.7194 63.9809 75.8227 64.6964C74.9454 65.3858 74.1682 66.5149 73.4911 68.084C73.0075 69.228 72.7115 70.3792 72.6031 71.5377C72.5141 72.67 72.669 73.638 73.0677 74.4416C73.463 75.2225 74.1714 75.6772 75.193 75.8059C76.0642 75.8635 76.8522 75.5954 77.557 75.0015C78.2619 74.4076 78.8582 73.6316 79.3459 72.6735C79.8337 71.7154 80.1728 70.6977 80.3631 69.6203ZM100.964 58.2843C101.546 57.965 102.031 57.7767 102.419 57.7193C102.826 57.6358 103.183 57.6063 103.49 57.6308C103.751 57.6621 104.005 57.6478 104.253 57.5879C104.523 57.5246 104.814 57.3649 105.126 57.109C106.201 56.1805 107.234 55.8296 108.223 56.0563C109.212 56.283 110.104 56.7923 110.897 57.5842C111.877 58.535 112.583 59.8411 113.015 61.5025C113.444 63.141 113.618 64.9455 113.537 66.9161C113.474 68.8604 113.161 70.7603 112.596 72.6158C111.832 75.0137 110.76 76.9093 109.381 78.3024C108.021 79.6693 106.522 80.5672 104.883 80.9961C103.267 81.4217 101.701 81.3968 100.186 80.9216C98.6665 80.4236 97.3768 79.507 96.3166 78.1716C95.2302 76.8169 94.5609 75.0507 94.3087 72.8731C94.1139 71.0833 94.2516 69.2561 94.7218 67.3913C95.1692 65.5298 95.9156 63.799 96.9612 62.1988C98.0068 60.5986 99.3409 59.2938 100.964 58.2843ZM106.88 63.5292C106.797 62.4924 106.511 61.8235 106.024 61.5226C105.556 61.1955 105.01 61.2063 104.385 61.5552C103.783 61.9007 103.248 62.5394 102.78 63.4713C102.215 64.6973 101.74 66.1316 101.353 67.7741C100.967 69.4167 100.71 70.9935 100.584 72.5043C100.484 74.0346 100.625 75.1445 101.007 75.8341C101.408 76.4975 101.928 76.7819 102.567 76.6874C103.202 76.5701 103.835 76.1152 104.463 75.3227C105.089 74.5074 105.589 73.396 105.963 71.9883C106.717 68.7293 107.023 65.9096 106.88 63.5292ZM142.484 81.2739C141.477 81.3996 140.57 81.2541 139.762 80.8373C138.977 80.4172 138.492 79.6613 138.307 78.5695C138.128 77.1972 138.047 75.7869 138.066 74.3385C138.104 72.864 138.148 71.7385 138.196 70.962C138.438 67.0793 138.917 62.7534 139.634 57.9844C140.373 53.212 141.371 48.8444 142.626 44.8816C143.157 43.2644 143.839 42.0444 144.673 41.2215C145.225 40.6969 145.849 40.348 146.546 40.175C147.266 39.9985 147.939 40.0506 148.563 40.3313C149.184 40.5891 149.65 41.1381 149.961 41.9781C150.755 44.3552 151.744 47.4147 152.927 51.1566C153.192 52.0033 153.471 52.8598 153.762 53.726C153.981 54.4164 154.201 55.1182 154.423 55.8314C154.589 56.3199 154.721 56.7433 154.821 57.1016C155.073 58.0201 155.26 58.4938 155.381 58.5225C155.525 58.5479 155.784 58.1715 156.158 57.3934C156.336 57.0174 156.581 56.5497 156.895 55.9904C158.947 52.2128 161.358 48.2541 164.126 44.1142C166.894 39.9743 169.27 36.6501 171.254 34.1418C172.045 33.1854 172.899 32.4179 173.816 31.8392C174.752 31.2344 175.733 30.693 176.758 30.2149C177.539 29.8196 178.316 29.4015 179.09 28.9606C180.164 28.3355 181.051 28.3442 181.752 28.9865C182.453 29.6288 182.714 30.9192 182.535 32.8576C181.448 41.9014 180.476 50.6951 179.618 59.2386C179.522 60.3253 179.391 61.8834 179.225 63.9131C179.079 65.9165 178.936 68.0244 178.797 70.2365C178.577 73.3233 178.397 75.7281 178.255 77.451C178.157 78.6779 177.917 79.5761 177.535 80.1455C177.176 80.7116 176.74 81.0791 176.229 81.248C175.721 81.4397 175.19 81.5532 174.636 81.5886C174.613 81.592 174.59 81.5954 174.567 81.5987C173.423 81.7447 172.396 81.5818 171.487 81.1101C170.578 80.6384 170.019 79.7768 169.811 78.5253C169.675 77.4496 169.615 75.943 169.632 74.0054C169.668 72.0417 169.729 70.1675 169.814 68.3828C169.897 66.5754 169.964 65.3764 170.017 64.7857C170.252 60.8574 170.714 56.499 171.405 51.7105C171.417 51.6387 171.432 51.5783 171.448 51.5293C171.723 49.7633 171.79 48.7975 171.649 48.6318C171.504 48.4434 170.891 49.3385 169.808 51.3173C168.502 53.6788 167.252 55.9503 166.06 58.1318C164.961 60.1596 163.707 62.56 162.299 65.333C161.469 66.9712 160.698 68.4608 159.987 69.8017C159.399 70.8679 158.794 71.5869 158.173 71.9586C157.548 72.3074 156.929 72.4573 156.316 72.4081C155.699 72.3362 155.133 72.2102 154.616 72.0301C154.571 72.0368 154.535 72.0305 154.509 72.011C153.78 71.8157 153.193 71.5528 152.748 71.2223C152.326 70.8884 152.007 70.3877 151.792 69.7201C151.341 68.248 150.906 66.7269 150.487 65.1569C149.996 63.411 149.481 61.6685 148.944 59.9294C148.686 59.1283 148.446 58.5342 148.226 58.1471C148.028 57.7567 147.855 57.6891 147.706 57.9442C147.554 58.1766 147.409 58.8508 147.271 59.9671C147.05 62.0981 146.84 64.1459 146.641 66.1105C146.468 68.0945 146.279 70.4423 146.074 73.1538C145.968 74.8016 145.863 76.2976 145.759 77.642C145.66 78.7058 145.449 79.4832 145.125 79.974C144.805 80.4877 144.412 80.8256 143.946 80.9878C143.503 81.1465 143.05 81.2369 142.587 81.2587C142.541 81.2655 142.507 81.2706 142.484 81.2739ZM189.534 45.1816C190.116 44.8624 190.601 44.674 190.989 44.6166C191.396 44.5331 191.753 44.5036 192.06 44.5281C192.321 44.5595 192.575 44.5451 192.823 44.4852C193.093 44.4219 193.385 44.2622 193.696 44.0063C194.772 43.0778 195.804 42.727 196.793 42.9536C197.783 43.1803 198.674 43.6896 199.467 44.4815C200.447 45.4323 201.153 46.7384 201.586 48.3998C202.015 50.0383 202.188 51.8429 202.107 53.8134C202.045 55.7577 201.731 57.6576 201.166 59.5131C200.402 61.911 199.33 63.8066 197.951 65.1997C196.591 66.5666 195.092 67.4645 193.453 67.8934C191.838 68.319 190.272 68.2942 188.756 67.819C187.237 67.3209 185.947 66.4043 184.887 65.0689C183.8 63.7142 183.131 61.948 182.879 59.7704C182.684 57.9807 182.822 56.1534 183.292 54.2886C183.739 52.4271 184.486 50.6963 185.531 49.0961C186.577 47.4959 187.911 46.1911 189.534 45.1816ZM195.451 50.4265C195.367 49.3897 195.082 48.7208 194.594 48.4199C194.126 48.0928 193.58 48.1036 192.955 48.4525C192.354 48.798 191.819 49.4367 191.35 50.3686C190.786 51.5946 190.31 53.0289 189.923 54.6715C189.537 56.3141 189.281 57.8908 189.154 59.4016C189.054 60.9319 189.195 62.0418 189.577 62.7314C189.978 63.3948 190.498 63.6793 191.137 63.5847C191.773 63.4674 192.405 63.0125 193.034 62.22C193.659 61.4048 194.159 60.2933 194.534 58.8856C195.287 55.6266 195.593 52.8069 195.451 50.4265ZM221.576 33.412C222.247 33.2195 222.858 33.1757 223.41 33.2806C223.981 33.3593 224.456 33.732 224.835 34.3988C225.085 34.8281 225.24 35.3296 225.302 35.9034C225.383 36.451 225.216 36.8954 224.8 37.2367C222.229 39.0859 220.078 41.0944 218.347 43.2623C216.639 45.4268 215.465 47.5822 214.827 49.7283C214.211 51.8711 214.247 53.8476 214.935 55.6577C215.645 57.4645 217.135 58.946 219.404 60.1025C220.062 60.4482 220.503 60.9891 220.728 61.7251C220.973 62.435 221.018 63.2094 220.862 64.0485C220.726 64.8614 220.4 65.574 219.885 66.1866C219.369 66.7991 218.678 67.1695 217.811 67.2977C214.89 67.5667 212.359 67.0084 210.219 65.623C208.075 64.2148 206.508 62.2085 205.516 59.604C204.634 57.2632 204.31 54.7581 204.545 52.0888C204.779 49.4195 205.562 46.8323 206.894 44.3272C208.222 41.7992 210.107 39.5735 212.551 37.6499C214.994 35.7264 218.002 34.3137 221.576 33.412ZM239.511 21.3162C238.935 26.2509 238.349 31.6651 237.752 37.5588C237.702 38.0092 237.633 38.4858 237.544 38.9885C237.443 39.7262 237.378 40.3886 237.348 40.9759C237.315 41.5403 237.402 41.8889 237.608 42.0216C237.834 42.1282 238.25 41.8684 238.857 41.2424C239.726 40.3443 240.68 39.5388 241.717 38.8259C243.729 37.4557 245.547 36.8253 247.172 36.9346C248.817 37.0178 250.166 37.7042 251.219 38.9939C252.272 40.2836 252.963 42.035 253.29 44.2481C253.59 46.7451 253.681 49.4128 253.565 52.2511C253.449 55.0894 253.168 57.2876 252.722 58.8457C252.324 60.0937 251.728 61.0328 250.935 61.663C250.162 62.267 249.388 62.6264 248.612 62.7411C247.373 62.8778 246.355 62.4572 245.558 61.4793C244.783 60.4981 244.525 59.0675 244.783 57.1874C244.833 56.7371 244.954 55.8215 245.146 54.4409C245.338 53.0602 245.523 51.5523 245.701 49.9173C245.901 48.2789 246.03 46.861 246.086 45.6636C246.118 44.3066 245.919 43.3568 245.489 42.8142C245.079 42.2454 244.392 42.3353 243.431 43.0837C241.205 44.9051 239.568 46.6045 238.519 48.1819C237.49 49.7331 236.786 51.4343 236.407 53.2856C236.028 55.1369 235.724 57.42 235.496 60.135C235.348 61.1827 234.852 62.0023 234.007 62.5936C233.184 63.1816 232.227 63.4864 231.134 63.5081C230.064 63.5265 229.122 63.223 228.307 62.5975C227.469 61.9754 226.973 60.9879 226.819 59.635C226.634 56.4916 226.805 52.6076 227.334 47.9831C227.859 43.3357 228.549 38.7805 229.404 34.3174C230.282 29.8509 231.153 26.2831 232.017 23.6139C232.654 21.7711 233.418 20.3174 234.31 19.2529C235.221 18.1622 236.101 17.4957 236.952 17.2534C237.821 16.9848 238.504 17.1869 239 17.8597C239.518 18.529 239.689 19.6812 239.511 21.3162ZM264.534 22.6155C265.294 22.7129 265.767 23.0742 265.953 23.6995C266.139 24.3249 266.054 24.932 265.698 25.5209C265.365 26.1064 264.768 26.4046 263.907 26.4154C263.055 26.3315 262.512 25.9689 262.277 25.3275C262.042 24.6861 262.114 24.0693 262.493 23.477C262.872 22.8848 263.552 22.5976 264.534 22.6155ZM257.972 36.1764C258.443 34.4747 259.086 33.0738 259.903 31.9738C260.716 30.8509 261.534 30.1586 262.358 29.8969C263.179 29.6123 263.847 29.8748 264.363 30.6844C264.902 31.4906 265.12 32.9622 265.017 35.0992C264.84 38.3195 264.544 41.9888 264.127 46.1072C263.73 50.1995 263.351 53.7061 262.99 56.6272C262.707 58.6509 262.179 59.9648 261.405 60.5688C260.655 61.1694 259.848 61.2305 258.984 60.7521C258.121 60.2736 257.373 59.3934 256.74 58.1114C256.104 56.8066 255.782 55.2572 255.773 53.4633C255.795 50.7787 256.024 47.8306 256.458 44.6189C256.866 41.3877 257.37 38.5735 257.972 36.1764ZM275.852 55.389C275.715 56.6683 275.185 57.656 274.262 58.3521C273.358 59.022 272.344 59.3352 271.218 59.2919C270.07 59.252 269.089 58.7676 268.276 57.8388C267.439 56.9133 267.039 55.4687 267.075 53.5049C267.202 50.2686 267.468 46.3124 267.872 41.6363C268.273 36.9373 268.824 32.3094 269.525 27.7525C270.25 23.1922 271.149 19.5035 272.225 16.6865C273.05 14.6993 273.979 13.2562 275.012 12.3573C276.041 11.4357 276.93 11.1409 277.679 11.4732C278.427 11.8054 278.803 12.8457 278.805 14.594C278.641 19.0015 278.361 23.8107 277.967 29.0217C277.572 34.2327 277.157 39.3884 276.722 44.4887C276.393 48.4077 276.103 52.0412 275.852 55.389ZM293.609 25.3087C295.285 25.1307 296.659 25.3587 297.732 25.9927C298.825 26.6005 299.617 27.4626 300.109 28.5789C300.62 29.6691 300.839 30.8373 300.767 32.0837C300.695 33.33 300.355 34.4994 299.747 35.5919C299.074 36.7173 298.248 37.5156 297.269 37.9869C296.289 38.4582 295.286 38.6883 294.258 38.6771C293.227 38.6431 292.267 38.4587 291.379 38.1239C291.254 38.0723 291.128 38.0093 291.001 37.9349C290.772 37.8056 290.551 37.7333 290.339 37.7181C290.127 37.7028 289.896 37.8768 289.647 38.2401C289.22 38.9794 288.936 39.8142 288.794 40.7445C288.511 42.9313 288.715 44.8596 289.405 46.5295C290.095 48.1993 291.114 49.5756 292.463 50.6584C293.836 51.7377 295.39 52.4753 297.127 52.8711C298.143 53.1172 298.618 53.49 298.552 53.9893C298.482 54.4659 298.052 54.8676 297.261 55.1945C295.581 55.816 293.73 56.0666 291.707 55.9462C289.132 55.7209 286.98 54.8852 285.251 53.439C283.518 51.97 282.234 50.1433 281.398 47.9588C280.535 45.7549 280.134 43.4361 280.194 41.0026C280.25 38.5462 280.776 36.1951 281.773 33.9493C282.77 31.7035 284.249 29.8059 286.212 28.2566C288.171 26.6845 290.637 25.7018 293.609 25.3087ZM295.339 34.6353C296.051 34.087 296.479 33.3591 296.625 32.4516C296.767 31.5213 296.649 30.7228 296.27 30.056C295.892 29.3892 295.305 29.1263 294.51 29.2673C293.774 29.4927 293.117 29.9396 292.54 30.6079C291.985 31.2728 291.625 31.9905 291.46 32.7611C291.294 33.5317 291.437 34.1866 291.89 34.7258C292.372 35.1442 292.956 35.3142 293.644 35.2357C294.329 35.1345 294.894 34.9343 295.339 34.6353ZM311.625 15.649C312.386 15.7464 312.859 16.1077 313.044 16.733C313.23 17.3584 313.145 17.9655 312.789 18.5544C312.456 19.1399 311.859 19.4381 310.998 19.4489C310.146 19.365 309.603 19.0024 309.368 18.361C309.134 17.7196 309.206 17.1028 309.584 16.5105C309.963 15.9183 310.643 15.6311 311.625 15.649ZM305.063 29.2099C305.534 27.5082 306.178 26.1073 306.994 25.0073C307.807 23.8844 308.626 23.1921 309.45 22.9304C310.27 22.6458 310.939 22.9083 311.455 23.7179C311.994 24.5241 312.211 25.9957 312.108 28.1327C311.932 31.353 311.635 35.0223 311.218 39.1407C310.821 43.233 310.442 46.7396 310.082 49.6607C309.798 51.6844 309.27 52.9983 308.497 53.6023C307.746 54.2029 306.939 54.264 306.076 53.7856C305.212 53.3071 304.464 52.4269 303.831 51.1449C303.195 49.8401 302.873 48.2907 302.864 46.4968C302.887 43.8122 303.115 40.8641 303.549 37.6524C303.957 34.4212 304.462 31.607 305.063 29.2099ZM334.624 22.1789C332.862 23.3489 331.334 24.8454 330.042 26.6687C328.769 28.4657 327.677 30.4576 326.764 32.6442C325.852 34.8309 325.064 37.0691 324.4 39.3589C323.733 41.6259 323.136 43.8127 322.608 45.9191C322.355 46.8891 322.107 47.8118 321.863 48.6872C321.495 49.9774 320.881 50.9541 320.024 51.6172C319.162 52.2576 318.26 52.5426 317.317 52.4722C316.374 52.4019 315.581 51.9247 314.937 51.0407C314.267 50.1373 313.941 48.7983 313.958 47.0239C314.02 44.9164 314.28 42.4183 314.738 39.5293C315.171 36.6209 315.707 34.0235 316.348 31.7371C316.704 30.5187 317.22 29.5914 317.895 28.9553C318.567 28.2963 319.511 27.9817 320.728 28.0116C321.361 28.0345 321.847 28.0093 322.186 27.9358C322.544 27.8362 322.84 27.6292 323.073 27.3149C323.731 26.4016 324.572 25.3912 325.597 24.2836C326.623 23.176 327.792 22.1754 329.105 21.2816C330.441 20.3845 331.861 19.8132 333.363 19.5676C334.23 19.4393 334.933 19.4636 335.472 19.6403C336.011 19.817 336.243 20.1208 336.167 20.5518C336.113 20.9793 335.599 21.5217 334.624 22.1789ZM338.337 23.1683C338.92 22.849 339.405 22.6607 339.792 22.6033C340.2 22.5197 340.557 22.4902 340.864 22.5148C341.125 22.5461 341.379 22.5318 341.627 22.4719C341.897 22.4086 342.188 22.2489 342.5 21.9929C343.575 21.0645 344.607 20.7136 345.597 20.9403C346.586 21.167 347.478 21.6763 348.271 22.4682C349.251 23.419 349.957 24.7251 350.389 26.3865C350.818 28.025 350.992 29.8295 350.91 31.8C350.848 33.7444 350.535 35.6443 349.97 37.4998C349.206 39.8977 348.134 41.7932 346.754 43.1864C345.394 44.5533 343.895 45.4512 342.257 45.8801C340.641 46.3057 339.075 46.2808 337.559 45.8056C336.04 45.3076 334.751 44.3909 333.69 43.0556C332.604 41.7009 331.935 39.9347 331.682 37.7571C331.488 35.9673 331.625 34.1401 332.096 32.2752C332.543 30.4138 333.289 28.683 334.335 27.0828C335.381 25.4826 336.715 24.1778 338.337 23.1683ZM344.254 28.4132C344.171 27.3763 343.885 26.7075 343.398 26.4066C342.93 26.0794 342.383 26.0903 341.759 26.4392C341.157 26.7846 340.622 27.4234 340.154 28.3553C339.589 29.5813 339.113 31.0155 338.727 32.6581C338.34 34.3007 338.084 35.8774 337.958 37.3883C337.858 38.9185 337.999 40.0285 338.381 40.7181C338.782 41.3815 339.302 41.6659 339.941 41.5714C340.576 41.4541 341.208 40.9992 341.837 40.2067C342.463 39.3914 342.963 38.2799 343.337 36.8723C344.091 33.6133 344.396 30.7936 344.254 28.4132Z" fill="#FFC13D"/>
</svg>
